<svg width="24" height="24" viewBox="0 0 24 24" fill="none" xmlns="http://www.w3.org/2000/svg">
<g clip-path="url(#clip0_6004_12388)">
<path opacity="0.998" fill-rule="evenodd" clip-rule="evenodd" d="M3.71059 1.99139C4.05827 1.94688 4.35452 2.04709 4.59936 2.29198C5.64392 3.8835 6.68274 5.47897 7.71581 7.07839C7.81821 7.47696 7.77976 7.86235 7.60039 8.23453C7.03485 9.1981 6.44619 10.1461 5.83439 11.0786C6.09098 11.7546 6.42571 12.3867 6.83859 12.9747C7.93449 14.5194 9.24647 15.849 10.7746 16.9634C11.4341 17.4383 12.1459 17.8198 12.9099 18.1079C13.7617 17.5554 14.6197 17.012 15.4839 16.4778C15.7436 16.3243 16.0206 16.2164 16.3149 16.1541C16.4611 16.1386 16.6073 16.1386 16.7535 16.1541C16.8255 16.1786 16.8948 16.2094 16.9613 16.2466C18.5527 17.278 20.1379 18.3185 21.7168 19.3681C21.8807 19.5557 21.9652 19.7753 21.9707 20.0271C21.9541 20.3091 21.8733 20.5712 21.7283 20.8133C21.0771 21.7047 20.35 22.5334 19.5468 23.299C19.2701 23.5531 18.9622 23.7612 18.6234 23.9233C18.4702 23.9483 18.3163 23.9675 18.1617 23.9811C17.0538 23.9527 15.9842 23.733 14.9529 23.3221C13.4022 22.6886 11.9632 21.8714 10.636 20.8711C7.60353 18.5813 4.968 15.9029 2.72948 12.836C1.91422 11.6811 1.22936 10.4479 0.674931 9.13632C0.230502 8.05889 -0.00420444 6.93744 -0.0291569 5.77196C-0.0325342 5.54318 0.0251849 5.33124 0.14398 5.13608C0.379237 4.78471 0.640858 4.45329 0.928864 4.1418C1.65872 3.37165 2.46283 2.69726 3.34123 2.11856C3.46464 2.06839 3.58775 2.026 3.71059 1.99139Z" fill="#E0A753"/>
<path opacity="0.999" fill-rule="evenodd" clip-rule="evenodd" d="M15.3342 0.990002C15.3787 1.5607 15.3935 2.13965 15.3789 2.72684C16.8667 2.71591 18.354 2.72749 19.8407 2.76158C21.2111 3.06469 22.1072 3.90996 22.529 5.29737C22.5703 5.46506 22.6 5.63487 22.6183 5.80684C22.6294 7.86787 22.6332 9.92893 22.6294 11.99C21.8858 11.99 21.1421 11.99 20.3985 11.99C20.4022 10.0602 20.3985 8.13034 20.3873 6.20053C20.3479 5.61148 20.0541 5.23709 19.5061 5.07737C18.1308 5.04351 16.7551 5.03193 15.3789 5.04263C15.3863 5.62179 15.3789 6.20074 15.3565 6.77948C14.1098 5.81993 12.8679 4.85501 11.6309 3.88474C12.866 2.91961 14.1004 1.95471 15.3342 0.990002Z" fill="#E0A753"/>
</g>
<defs>
<clipPath id="clip0_6004_12388">
<rect width="24" height="24" fill="white"/>
</clipPath>
</defs>
</svg>
