<svg width="70" height="70" viewBox="0 0 70 70" fill="none" xmlns="http://www.w3.org/2000/svg">
<path fill-rule="evenodd" clip-rule="evenodd" d="M5.66247 29.9459C5.61207 29.7611 5.60367 29.3999 5.60367 29.3999L5.60087 11.7347C5.60087 11.7123 5.60087 11.6927 5.60367 11.6703C5.58967 10.7071 5.90887 9.73552 6.57247 8.93472C8.05367 7.15392 10.7053 6.91032 12.4861 8.39152C13.3233 9.08872 13.8217 10.0407 13.9589 11.0375L26.2761 21.1203L26.8137 20.2579C26.9453 20.0479 27.1217 19.8855 27.3233 19.7763C27.5221 19.6643 27.7545 19.5999 28.0009 19.5999H34.7853C37.2213 19.5999 39.2009 21.4899 39.2009 23.8195V40.5999C39.2009 42.9183 37.3193 44.7999 35.0009 44.7999H33.5281V47.5999H42.0009V26.5999C42.0009 26.3339 42.0765 26.0819 42.2053 25.8691C42.4517 25.4687 42.8941 25.1999 43.4009 25.1999H54.6009C54.8529 25.1999 55.0881 25.2671 55.2897 25.3819C55.4941 25.4967 55.6733 25.6647 55.8021 25.8803L64.2049 39.8887C64.2665 39.9895 64.3141 40.1015 64.3477 40.2191L64.3533 40.2331C64.3841 40.3507 64.4009 40.4711 64.4009 40.5915V57.3999C64.4009 57.8563 64.1825 58.2623 63.8409 58.5199C63.6085 58.6963 63.3173 58.7999 63.0009 58.7999H57.4009C57.3421 58.7999 57.2833 58.7971 57.2273 58.7887C56.6085 61.2079 54.4133 62.9999 51.8009 62.9999C49.1885 62.9999 46.9933 61.2079 46.3745 58.7887C46.3185 58.7971 46.2597 58.7999 46.2009 58.7999H35.0009C34.9421 58.7999 34.8833 58.7971 34.8273 58.7887C34.2085 61.2079 32.0133 62.9999 29.4009 62.9999C26.7885 62.9999 24.5933 61.2079 23.9745 58.7887C23.9185 58.7971 23.8597 58.7999 23.8009 58.7999H21.0009C20.9421 58.7999 20.8833 58.7971 20.8273 58.7887C20.2085 61.2079 18.0133 62.9999 15.4009 62.9999C12.7885 62.9999 10.5933 61.2079 9.97447 58.7887C9.91847 58.7971 9.85967 58.7999 9.80087 58.7999H7.00087C6.22807 58.7999 5.60087 58.1727 5.60087 57.3999V48.9999C5.60087 48.2271 6.22807 47.5999 7.00087 47.5999H22.4009V44.7999H18.2737C15.9553 44.7999 14.0737 42.9183 14.0737 40.5999V34.9999C14.0737 32.6815 15.9553 30.7999 18.2737 30.7999H20.2253L22.4177 27.2887L8.40087 16.1503V28.0055C10.7473 28.1063 12.8669 29.6883 13.5445 32.0683C14.3901 35.0419 12.6625 38.1415 9.69167 38.9871C6.71527 39.8327 3.61847 38.1079 2.77287 35.1343C2.56007 34.3895 2.99407 33.6167 3.73607 33.4039C4.47807 33.1939 5.25367 33.6251 5.46647 34.3671C5.88927 35.8539 7.43767 36.7191 8.92447 36.2935C10.4113 35.8707 11.2737 34.3223 10.8509 32.8355C10.4281 31.3487 8.87967 30.4863 7.39287 30.9091C6.64807 31.1191 5.87527 30.6879 5.66247 29.9459ZM15.4009 54.5999C16.9465 54.5999 18.2009 55.8543 18.2009 57.3999C18.2009 58.9455 16.9465 60.1999 15.4009 60.1999C13.8553 60.1999 12.6009 58.9455 12.6009 57.3999C12.6009 55.8543 13.8553 54.5999 15.4009 54.5999ZM29.4009 54.5999C30.9465 54.5999 32.2009 55.8543 32.2009 57.3999C32.2009 58.9455 30.9465 60.1999 29.4009 60.1999C27.8553 60.1999 26.6009 58.9455 26.6009 57.3999C26.6009 55.8543 27.8553 54.5999 29.4009 54.5999ZM51.8009 54.5999C53.3465 54.5999 54.6009 55.8543 54.6009 57.3999C54.6009 58.9455 53.3465 60.1999 51.8009 60.1999C50.2553 60.1999 49.0009 58.9455 49.0009 57.3999C49.0009 55.8543 50.2553 54.5999 51.8009 54.5999ZM61.6009 55.9999V40.9863L53.8085 27.9999H44.8009V48.9999C44.8009 49.1231 44.7841 49.2407 44.7561 49.3555L44.7533 49.3583C44.5965 49.9575 44.0505 50.3999 43.4009 50.3999H8.40087V55.9999L9.97447 56.0111C10.5933 53.5919 12.7885 51.7999 15.4009 51.7999C18.0133 51.7999 20.2085 53.5919 20.8273 56.0111C20.8833 56.0027 20.9421 55.9999 21.0009 55.9999H23.8009C23.8597 55.9999 23.9185 56.0027 23.9745 56.0111C24.5933 53.5919 26.7885 51.7999 29.4009 51.7999C32.0133 51.7999 34.2085 53.5919 34.8273 56.0111C34.8833 56.0027 34.9421 55.9999 35.0009 55.9999H46.2009C46.2597 55.9999 46.3185 56.0027 46.3745 56.0111C46.9933 53.5919 49.1885 51.7999 51.8009 51.7999C54.4133 51.7999 56.6085 53.5919 57.2273 56.0111C57.2833 56.0027 57.3421 55.9999 57.4009 55.9999H61.6009ZM47.6009 32.1999C47.6009 31.4271 48.2281 30.7999 49.0009 30.7999H51.8009C52.3245 30.7999 52.7809 31.0883 53.0217 31.5139L58.6133 41.2999C58.6609 41.3811 58.6973 41.4651 58.7281 41.5547L58.7309 41.5603C58.7813 41.7115 58.8037 41.8683 58.8009 42.0251V48.9999C58.8009 49.7699 58.1793 50.3943 57.4093 50.3999H49.0009C48.2281 50.3999 47.6009 49.7727 47.6009 48.9999V32.1999ZM25.2009 44.7999V47.5999H30.7281V44.7999H25.2009ZM50.4009 33.5999V47.5999H56.0009V42.3723L50.9889 33.5999H50.4009ZM36.4009 40.5999V34.9999C36.4009 34.2271 35.7737 33.5999 35.0009 33.5999H18.2737C17.5009 33.5999 16.8737 34.2271 16.8737 34.9999V40.5999C16.8737 41.3727 17.5009 41.9999 18.2737 41.9999H35.0009C35.7737 41.9999 36.4009 41.3727 36.4009 40.5999ZM26.6009 37.7999C26.6009 37.0271 25.9737 36.3999 25.2009 36.3999H21.0009C20.2281 36.3999 19.6009 37.0271 19.6009 37.7999C19.6009 38.5727 20.2281 39.1999 21.0009 39.1999H25.2009C25.9737 39.1999 26.6009 38.5727 26.6009 37.7999ZM34.7853 22.3999H28.7765L23.5265 30.7999H35.0009C35.4909 30.7999 35.9641 30.8839 36.4009 31.0379V23.8195C36.4009 22.9683 35.6757 22.3999 34.7853 22.3999ZM13.2253 14.0559C13.1637 14.1399 13.0993 14.2239 13.0293 14.3079C12.6849 14.7223 12.2761 15.0527 11.8309 15.2991L23.9129 24.9003L24.7809 23.5115L13.2253 14.0559ZM8.72567 10.7267C9.21847 10.1331 10.1033 10.0519 10.6969 10.5447C11.2905 11.0403 11.3717 11.9223 10.8789 12.5159C10.3833 13.1095 9.50127 13.1907 8.90487 12.6979C8.31127 12.2051 8.23007 11.3203 8.72567 10.7267Z" fill="#E0A753"/>
</svg>
