<svg width="70" height="70" viewBox="0 0 70 70" fill="none" xmlns="http://www.w3.org/2000/svg">
<path d="M14.2188 57.9688C13.5698 57.9688 12.9354 58.1612 12.3958 58.5217C11.8562 58.8823 11.4356 59.3948 11.1873 59.9943C10.9389 60.5939 10.8739 61.2536 11.0005 61.8901C11.1272 62.5266 11.4397 63.1113 11.8986 63.5702C12.3574 64.0291 12.9421 64.3416 13.5786 64.4682C14.2151 64.5948 14.8749 64.5298 15.4744 64.2815C16.074 64.0331 16.5865 63.6126 16.947 63.073C17.3076 62.5334 17.5 61.899 17.5 61.25C17.499 60.3801 17.153 59.546 16.5379 58.9309C15.9227 58.3157 15.0887 57.9697 14.2188 57.9688ZM14.2188 62.3438C14.0024 62.3438 13.791 62.2796 13.6111 62.1594C13.4312 62.0392 13.291 61.8684 13.2083 61.6686C13.1255 61.4687 13.1038 61.2488 13.146 61.0366C13.1882 60.8245 13.2924 60.6296 13.4454 60.4766C13.5983 60.3236 13.7932 60.2195 14.0054 60.1773C14.2175 60.1351 14.4375 60.1567 14.6373 60.2395C14.8372 60.3223 15.008 60.4625 15.1282 60.6423C15.2484 60.8222 15.3125 61.0337 15.3125 61.25C15.3122 61.54 15.1968 61.818 14.9918 62.023C14.7867 62.2281 14.5087 62.3434 14.2188 62.3438Z" fill="#E0A753"/>
<path d="M55.7813 57.9688C55.1323 57.9688 54.4979 58.1612 53.9583 58.5217C53.4187 58.8823 52.9981 59.3948 52.7498 59.9943C52.5014 60.5939 52.4364 61.2536 52.563 61.8901C52.6897 62.5266 53.0022 63.1113 53.4611 63.5702C53.9199 64.0291 54.5046 64.3416 55.1411 64.4682C55.7776 64.5948 56.4374 64.5298 57.0369 64.2815C57.6365 64.0331 58.149 63.6126 58.5095 63.073C58.8701 62.5334 59.0625 61.899 59.0625 61.25C59.0615 60.3801 58.7155 59.546 58.1004 58.9309C57.4852 58.3157 56.6512 57.9697 55.7813 57.9688ZM55.7813 62.3438C55.5649 62.3438 55.3535 62.2796 55.1736 62.1594C54.9937 62.0392 54.8535 61.8684 54.7708 61.6686C54.688 61.4687 54.6663 61.2488 54.7085 61.0366C54.7507 60.8245 54.8549 60.6296 55.0079 60.4766C55.1608 60.3236 55.3557 60.2195 55.5679 60.1773C55.78 60.1351 56 60.1567 56.1998 60.2395C56.3997 60.3223 56.5705 60.4625 56.6907 60.6423C56.8109 60.8222 56.875 61.0337 56.875 61.25C56.8747 61.54 56.7593 61.818 56.5543 62.023C56.3492 62.2281 56.0712 62.3434 55.7813 62.3438Z" fill="#E0A753"/>
<path d="M68.7326 40.9705L58.8889 25.658C58.7898 25.504 58.6536 25.3774 58.4928 25.2897C58.3321 25.2021 58.1519 25.1562 57.9688 25.1562H42.6562V19.6875C42.6562 19.3974 42.541 19.1192 42.3359 18.9141C42.1308 18.709 41.8526 18.5938 41.5625 18.5938H39.375V2.1875C39.375 1.89742 39.2598 1.61922 39.0546 1.4141C38.8495 1.20898 38.5713 1.09375 38.2812 1.09375H8.75C8.56996 1.09403 8.39275 1.13857 8.23397 1.22344C8.07519 1.30831 7.9397 1.43092 7.83945 1.58047L3.46445 8.14297C3.35497 8.30782 3.2922 8.49926 3.28283 8.69693C3.27346 8.8946 3.31784 9.09112 3.41124 9.26559C3.50465 9.44005 3.64359 9.58594 3.81329 9.68775C3.98299 9.78955 4.17711 9.84346 4.375 9.84375H5.46875V13.125C5.46875 13.4151 5.58398 13.6933 5.7891 13.8984C5.99422 14.1035 6.27242 14.2188 6.5625 14.2188H7.65625V15.4506C6.864 15.6551 6.14498 16.0778 5.58088 16.6705C5.01678 17.2632 4.6302 18.0022 4.46504 18.8036C4.29989 19.605 4.36279 20.4367 4.64659 21.2041C4.93039 21.9715 5.42371 22.644 6.07054 23.1451C6.71736 23.6463 7.49176 23.956 8.30577 24.039C9.11977 24.1221 9.94077 23.9753 10.6755 23.6152C11.4102 23.255 12.0292 22.6961 12.4622 22.0018C12.8952 21.3075 13.1248 20.5057 13.125 19.6875C13.125 19.3974 13.0098 19.1192 12.8046 18.9141C12.5995 18.709 12.3213 18.5938 12.0312 18.5938C11.7412 18.5938 11.463 18.709 11.2579 18.9141C11.0527 19.1192 10.9375 19.3974 10.9375 19.6875C10.9375 20.1201 10.8092 20.5431 10.5688 20.9028C10.3285 21.2625 9.98683 21.5429 9.58712 21.7085C9.18741 21.8741 8.74757 21.9174 8.32324 21.833C7.89891 21.7486 7.50913 21.5402 7.2032 21.2343C6.89728 20.9284 6.68894 20.5386 6.60453 20.1143C6.52013 19.6899 6.56345 19.2501 6.72901 18.8504C6.89458 18.4507 7.17496 18.109 7.53469 17.8687C7.89442 17.6283 8.31735 17.5 8.75 17.5C9.04008 17.5 9.31828 17.3848 9.5234 17.1796C9.72852 16.9745 9.84375 16.6963 9.84375 16.4062V14.2188H10.9375C11.2276 14.2188 11.5058 14.1035 11.7109 13.8984C11.916 13.6933 12.0312 13.4151 12.0312 13.125V9.84375H30.625V18.5938H28.4375C28.1474 18.5938 27.8692 18.709 27.6641 18.9141C27.459 19.1192 27.3438 19.3974 27.3438 19.6875V25.1562H17.5C17.2099 25.1562 16.9317 25.2715 16.7266 25.4766C16.5215 25.6817 16.4062 25.9599 16.4062 26.25V29.5312H5.46875C5.17867 29.5312 4.90047 29.6465 4.69535 29.8516C4.49023 30.0567 4.375 30.3349 4.375 30.625V48.125H2.1875C1.89742 48.125 1.61922 48.2402 1.4141 48.4454C1.20898 48.6505 1.09375 48.9287 1.09375 49.2188V61.25C1.09375 61.5401 1.20898 61.8183 1.4141 62.0234C1.61922 62.2285 1.89742 62.3438 2.1875 62.3438H6.6418C6.90471 64.1658 7.8154 65.8321 9.20698 67.0373C10.5986 68.2425 12.3778 68.9058 14.2188 68.9058C16.0597 68.9058 17.8389 68.2425 19.2305 67.0373C20.6221 65.8321 21.5328 64.1658 21.7957 62.3438H48.2043C48.4672 64.1658 49.3779 65.8321 50.7695 67.0373C52.1611 68.2425 53.9403 68.9058 55.7812 68.9058C57.6222 68.9058 59.4014 68.2425 60.793 67.0373C62.1846 65.8321 63.0953 64.1658 63.3582 62.3438H67.8125C68.1026 62.3438 68.3808 62.2285 68.5859 62.0234C68.791 61.8183 68.9062 61.5401 68.9062 61.25V41.5625C68.9062 41.3526 68.846 41.1471 68.7326 40.9705ZM32.8125 3.28125H37.1875V18.5938H32.8125V3.28125ZM9.84375 12.0312H7.65625V9.84375H9.84375V12.0312ZM6.41895 7.65625L9.33516 3.28125H30.625V7.65625H6.41895ZM29.5312 20.7812H40.4688V25.1562H29.5312V20.7812ZM6.5625 31.7188H16.4062V48.125H6.5625V31.7188ZM14.2188 66.7188C13.1371 66.7188 12.0798 66.398 11.1805 65.7971C10.2811 65.1962 9.5802 64.3421 9.16628 63.3428C8.75237 62.3435 8.64407 61.2439 8.85508 60.1831C9.06609 59.1223 9.58694 58.1478 10.3518 57.383C11.1166 56.6182 12.091 56.0973 13.1518 55.8863C14.2127 55.6753 15.3123 55.7836 16.3116 56.1975C17.3108 56.6115 18.1649 57.3124 18.7659 58.2117C19.3668 59.1111 19.6875 60.1684 19.6875 61.25C19.6861 62.7 19.1094 64.0901 18.0841 65.1154C17.0589 66.1407 15.6687 66.7173 14.2188 66.7188ZM43.75 60.1562H21.7957C21.5328 58.3342 20.6221 56.6679 19.2305 55.4627C17.8389 54.2575 16.0597 53.5942 14.2188 53.5942C12.3778 53.5942 10.5986 54.2575 9.20698 55.4627C7.8154 56.6679 6.90471 58.3342 6.6418 60.1562H3.28125V50.3125H43.75V60.1562ZM43.75 48.125H18.5938V27.3438H43.75V48.125ZM59.4809 30.625L65.8096 40.4688H50.3125V30.625H59.4809ZM55.7812 66.7188C54.6996 66.7188 53.6423 66.398 52.743 65.7971C51.8436 65.1962 51.1427 64.3421 50.7288 63.3428C50.3149 62.3435 50.2066 61.2439 50.4176 60.1831C50.6286 59.1223 51.1494 58.1478 51.9143 57.383C52.6791 56.6182 53.6535 56.0973 54.7143 55.8863C55.7752 55.6753 56.8748 55.7836 57.8741 56.1975C58.8733 56.6115 59.7274 57.3124 60.3284 58.2117C60.9293 59.1111 61.25 60.1684 61.25 61.25C61.2486 62.7 60.6719 64.0901 59.6466 65.1154C58.6214 66.1407 57.2312 66.7173 55.7812 66.7188ZM66.7188 51.4062H64.5312C64.2412 51.4062 63.963 51.291 63.7579 51.0859C63.5527 50.8808 63.4375 50.6026 63.4375 50.3125C63.4375 50.0224 63.5527 49.7442 63.7579 49.5391C63.963 49.334 64.2412 49.2188 64.5312 49.2188H66.7188V51.4062ZM66.7188 47.0312H64.5312C63.661 47.0312 62.8264 47.377 62.2111 47.9923C61.5957 48.6077 61.25 49.4423 61.25 50.3125C61.25 51.1827 61.5957 52.0173 62.2111 52.6327C62.8264 53.248 63.661 53.5938 64.5312 53.5938H66.7188V60.1562H63.3582C63.0953 58.3342 62.1846 56.6679 60.793 55.4627C59.4014 54.2575 57.6222 53.5942 55.7812 53.5942C53.9403 53.5942 52.1611 54.2575 50.7695 55.4627C49.3779 56.6679 48.4672 58.3342 48.2043 60.1562H45.9375V27.3438H57.3713L58.0754 28.4375H49.2188C48.9287 28.4375 48.6505 28.5527 48.4454 28.7579C48.2402 28.963 48.125 29.2412 48.125 29.5312V41.5625C48.125 41.8526 48.2402 42.1308 48.4454 42.3359C48.6505 42.541 48.9287 42.6562 49.2188 42.6562H66.7188V47.0312Z" fill="#E0A753"/>
<path d="M52.5 43.75H49.2188C48.9287 43.75 48.6505 43.8652 48.4454 44.0704C48.2402 44.2755 48.125 44.5537 48.125 44.8438C48.125 45.1338 48.2402 45.412 48.4454 45.6171C48.6505 45.8223 48.9287 45.9375 49.2188 45.9375H52.5C52.7901 45.9375 53.0683 45.8223 53.2734 45.6171C53.4785 45.412 53.5938 45.1338 53.5938 44.8438C53.5938 44.5537 53.4785 44.2755 53.2734 44.0704C53.0683 43.8652 52.7901 43.75 52.5 43.75Z" fill="#E0A753"/>
<path d="M35 6.5625C35.6041 6.5625 36.0938 6.07281 36.0938 5.46875C36.0938 4.86469 35.6041 4.375 35 4.375C34.3959 4.375 33.9062 4.86469 33.9062 5.46875C33.9062 6.07281 34.3959 6.5625 35 6.5625Z" fill="#E0A753"/>
<path d="M35 24.0625C35.6041 24.0625 36.0938 23.5728 36.0938 22.9688C36.0938 22.3647 35.6041 21.875 35 21.875C34.3959 21.875 33.9062 22.3647 33.9062 22.9688C33.9062 23.5728 34.3959 24.0625 35 24.0625Z" fill="#E0A753"/>
<path d="M40.4688 36.0938H30.625C30.3349 36.0938 30.0567 36.209 29.8516 36.4141C29.6465 36.6192 29.5312 36.8974 29.5312 37.1875V45.9375C29.5312 46.2276 29.6465 46.5058 29.8516 46.7109C30.0567 46.916 30.3349 47.0312 30.625 47.0312H40.4688C40.7588 47.0312 41.037 46.916 41.2421 46.7109C41.4473 46.5058 41.5625 46.2276 41.5625 45.9375V37.1875C41.5625 36.8974 41.4473 36.6192 41.2421 36.4141C41.037 36.209 40.7588 36.0938 40.4688 36.0938ZM39.375 44.8438H31.7188V38.2812H39.375V44.8438Z" fill="#E0A753"/>
<path d="M20.7812 31.7188H40.4688C40.7588 31.7188 41.037 31.6035 41.2421 31.3984C41.4473 31.1933 41.5625 30.9151 41.5625 30.625C41.5625 30.3349 41.4473 30.0567 41.2421 29.8516C41.037 29.6465 40.7588 29.5312 40.4688 29.5312H20.7812C20.4912 29.5312 20.213 29.6465 20.0079 29.8516C19.8027 30.0567 19.6875 30.3349 19.6875 30.625C19.6875 30.9151 19.8027 31.1933 20.0079 31.3984C20.213 31.6035 20.4912 31.7188 20.7812 31.7188Z" fill="#E0A753"/>
<path d="M20.7812 35H40.4688C40.7588 35 41.037 34.8848 41.2421 34.6796C41.4473 34.4745 41.5625 34.1963 41.5625 33.9062C41.5625 33.6162 41.4473 33.338 41.2421 33.1329C41.037 32.9277 40.7588 32.8125 40.4688 32.8125H20.7812C20.4912 32.8125 20.213 32.9277 20.0079 33.1329C19.8027 33.338 19.6875 33.6162 19.6875 33.9062C19.6875 34.1963 19.8027 34.4745 20.0079 34.6796C20.213 34.8848 20.4912 35 20.7812 35Z" fill="#E0A753"/>
<path d="M14.2188 40.4688H8.75C8.45992 40.4688 8.18172 40.584 7.9766 40.7891C7.77148 40.9942 7.65625 41.2724 7.65625 41.5625C7.65625 41.8526 7.77148 42.1308 7.9766 42.3359C8.18172 42.541 8.45992 42.6562 8.75 42.6562H14.2188C14.5088 42.6562 14.787 42.541 14.9921 42.3359C15.1973 42.1308 15.3125 41.8526 15.3125 41.5625C15.3125 41.2724 15.1973 40.9942 14.9921 40.7891C14.787 40.584 14.5088 40.4688 14.2188 40.4688Z" fill="#E0A753"/>
<path d="M14.2188 43.75H8.75C8.45992 43.75 8.18172 43.8652 7.9766 44.0704C7.77148 44.2755 7.65625 44.5537 7.65625 44.8438C7.65625 45.1338 7.77148 45.412 7.9766 45.6171C8.18172 45.8223 8.45992 45.9375 8.75 45.9375H14.2188C14.5088 45.9375 14.787 45.8223 14.9921 45.6171C15.1973 45.412 15.3125 45.1338 15.3125 44.8438C15.3125 44.5537 15.1973 44.2755 14.9921 44.0704C14.787 43.8652 14.5088 43.75 14.2188 43.75Z" fill="#E0A753"/>
<path d="M14.2188 33.9062H8.75C8.45992 33.9062 8.18172 34.0215 7.9766 34.2266C7.77148 34.4317 7.65625 34.7099 7.65625 35V38.2812C7.65625 38.5713 7.77148 38.8495 7.9766 39.0546C8.18172 39.2598 8.45992 39.375 8.75 39.375H14.2188C14.5088 39.375 14.787 39.2598 14.9921 39.0546C15.1973 38.8495 15.3125 38.5713 15.3125 38.2812V35C15.3125 34.7099 15.1973 34.4317 14.9921 34.2266C14.787 34.0215 14.5088 33.9062 14.2188 33.9062ZM13.125 37.1875H9.84375V36.0938H13.125V37.1875Z" fill="#E0A753"/>
</svg>
