<svg width="70" height="70" viewBox="0 0 70 70" fill="none" xmlns="http://www.w3.org/2000/svg">
<g clip-path="url(#clip0_6004_14369)">
<path d="M44.6427 30.8688C45.2737 30.8688 45.7849 30.3576 45.7849 29.7266C45.7849 29.0958 45.2737 28.5845 44.6427 28.5845H36.4605C35.8296 28.5845 35.3184 29.0957 35.3184 29.7266C35.3184 30.3576 35.8296 30.8688 36.4605 30.8688H44.6427Z" fill="#E0A753"/>
<path d="M8.80035 15.1031H44.6425C45.2735 15.1031 45.7847 14.5918 45.7847 13.961C45.7847 13.33 45.2735 12.8188 44.6425 12.8188H8.80035C8.16953 12.8188 7.6582 13.33 7.6582 13.961C7.6582 14.5918 8.16953 15.1031 8.80035 15.1031Z" fill="#E0A753"/>
<path d="M8.80035 25.6136H44.6425C45.2735 25.6136 45.7847 25.1025 45.7847 24.4715C45.7847 23.8405 45.2735 23.3293 44.6425 23.3293H8.80035C8.16953 23.3293 7.6582 23.8405 7.6582 24.4715C7.6582 25.1023 8.16953 25.6136 8.80035 25.6136Z" fill="#E0A753"/>
<path d="M8.80035 30.8688H33.0142C33.645 30.8688 34.1563 30.3576 34.1563 29.7266C34.1563 29.0957 33.645 28.5845 33.0142 28.5845H8.80035C8.16953 28.5845 7.6582 29.0957 7.6582 29.7266C7.6582 30.3576 8.16953 30.8688 8.80035 30.8688Z" fill="#E0A753"/>
<path d="M44.6434 49.605H33.0152C32.3844 49.605 31.873 50.1162 31.873 50.7471C31.873 51.3781 32.3844 51.8893 33.0152 51.8893H44.6434C45.2744 51.8893 45.7855 51.3781 45.7855 50.7471C45.7855 50.1163 45.2744 49.605 44.6434 49.605Z" fill="#E0A753"/>
<path d="M44.6441 44.3501H23.1187C22.4879 44.3501 21.9766 44.8613 21.9766 45.4922C21.9766 46.1231 22.4879 46.6344 23.1187 46.6344H44.6444C45.2754 46.6344 45.7865 46.1231 45.7865 45.4922C45.7863 44.8613 45.2751 44.3501 44.6441 44.3501Z" fill="#E0A753"/>
<path d="M23.4824 34.982C23.4824 35.6129 23.9938 36.1241 24.6246 36.1241H44.6435C45.2744 36.1241 45.7856 35.6129 45.7856 34.982C45.7856 34.351 45.2744 33.8398 44.6435 33.8398H24.6246C23.9939 33.84 23.4824 34.3512 23.4824 34.982Z" fill="#E0A753"/>
<path d="M8.80035 57.1442H44.6425C45.2735 57.1442 45.7847 56.6328 45.7847 56.002C45.7847 55.3711 45.2735 54.8599 44.6425 54.8599H8.80035C8.16953 54.8599 7.6582 55.3711 7.6582 56.002C7.6582 56.633 8.16953 57.1442 8.80035 57.1442Z" fill="#E0A753"/>
<path d="M8.80035 36.1241H21.3272C21.958 36.1241 22.4694 35.6129 22.4694 34.982C22.4694 34.351 21.958 33.8398 21.3272 33.8398H8.80035C8.16953 33.8398 7.6582 34.351 7.6582 34.982C7.6582 35.6128 8.16953 36.1241 8.80035 36.1241Z" fill="#E0A753"/>
<path d="M68.8578 0.21582H17.6981C17.0673 0.21582 16.556 0.727012 16.556 1.35797V3.57076H1.14215C0.511328 3.57076 0 4.08209 0 4.71291V68.6421C0 69.273 0.511328 69.7842 1.14215 69.7842H52.302C52.933 69.7842 53.4442 69.273 53.4442 68.6421V66.4294H68.8578C69.4888 66.4294 70 65.9182 70 65.2872V1.35797C70 0.727012 69.4888 0.21582 68.8578 0.21582ZM51.1599 67.5H2.2843V5.85506H51.1599V67.5ZM67.7157 64.1452H53.4442V53.7893H61.1994C61.8302 53.7893 62.3416 53.2781 62.3416 52.6472C62.3416 52.0162 61.8302 51.505 61.1994 51.505H53.4442V48.5343H61.1994C61.8302 48.5343 62.3416 48.0231 62.3416 47.3921C62.3416 46.7612 61.8302 46.25 61.1994 46.25H53.4442V43.2792H61.1994C61.8302 43.2792 62.3416 42.768 62.3416 42.1371C62.3416 41.5061 61.8302 40.9949 61.1994 40.9949H53.4442V38.0231H54.4396C55.0706 38.0231 55.5818 37.5119 55.5818 36.8809C55.5818 36.2501 55.0706 35.7388 54.4396 35.7388H53.4442V32.768H61.1994C61.8302 32.768 62.3416 32.2568 62.3416 31.6259C62.3416 30.9949 61.8302 30.4837 61.1994 30.4837H53.4442V27.5129H61.1994C61.8302 27.5129 62.3416 27.0018 62.3416 26.3708C62.3416 25.7398 61.8302 25.2287 61.1994 25.2287H53.4442V22.2579H61.1994C61.8302 22.2579 62.3416 21.7467 62.3416 21.1157C62.3416 20.4848 61.8302 19.9736 61.1994 19.9736H53.4442V17.0028H61.1994C61.8302 17.0028 62.3416 16.4916 62.3416 15.8607C62.3416 15.2297 61.8302 14.7185 61.1994 14.7185H53.4442V11.7483H61.1994C61.8302 11.7483 62.3416 11.2371 62.3416 10.6062C62.3416 9.97521 61.8302 9.46402 61.1994 9.46402H53.4442V4.71291C53.4442 4.08195 52.933 3.57076 52.302 3.57076H18.8403V2.50012H67.7157V64.1452Z" fill="#E0A753"/>
<path d="M8.80035 62.3993H31.2162C31.847 62.3993 32.3584 61.8881 32.3584 61.2571C32.3584 60.6262 31.847 60.115 31.2162 60.115H8.80035C8.16953 60.115 7.6582 60.6262 7.6582 61.2571C7.6582 61.8878 8.16953 62.3993 8.80035 62.3993Z" fill="#E0A753"/>
<path d="M8.80035 46.6344H18.9216C19.5525 46.6344 20.0638 46.1231 20.0638 45.4922C20.0638 44.8613 19.5525 44.3501 18.9216 44.3501H8.80035C8.16953 44.3501 7.6582 44.8613 7.6582 45.4922C7.6582 46.1229 8.16953 46.6344 8.80035 46.6344Z" fill="#E0A753"/>
<path d="M8.80035 51.889H28.9106C29.5414 51.889 30.0527 51.3778 30.0527 50.7469C30.0527 50.1159 29.5414 49.6047 28.9106 49.6047H8.80035C8.16953 49.6047 7.6582 50.1159 7.6582 50.7469C7.6582 51.3778 8.16953 51.889 8.80035 51.889Z" fill="#E0A753"/>
</g>
<defs>
<clipPath id="clip0_6004_14369">
<rect width="70" height="70" fill="white"/>
</clipPath>
</defs>
</svg>
