<svg width="70" height="70" viewBox="0 0 70 70" fill="none" xmlns="http://www.w3.org/2000/svg">
<path d="M62.0965 57.2043C61.0588 57.2043 60.2148 58.0484 60.2148 59.086C60.2148 60.1236 61.0589 60.9677 62.0965 60.9677C63.1341 60.9677 63.9782 60.1236 63.9782 59.086C63.9782 58.0484 63.1341 57.2043 62.0965 57.2043Z" fill="#E0A753"/>
<path d="M47.0438 57.2043C46.0061 57.2043 45.1621 58.0484 45.1621 59.086C45.1621 60.1236 46.0062 60.9677 47.0438 60.9677C48.0815 60.9677 48.9254 60.1236 48.9254 59.086C48.9254 58.0484 48.0815 57.2043 47.0438 57.2043Z" fill="#E0A753"/>
<path d="M31.9891 57.2043C30.9514 57.2043 30.1074 58.0484 30.1074 59.086C30.1074 60.1236 30.9515 60.9677 31.9891 60.9677C33.0266 60.9677 33.8707 60.1236 33.8707 59.086C33.8707 58.0484 33.0266 57.2043 31.9891 57.2043Z" fill="#E0A753"/>
<path d="M39.5164 57.2043C38.4787 57.2043 37.6348 58.0484 37.6348 59.086C37.6348 60.1236 38.4789 60.9677 39.5164 60.9677C40.554 60.9677 41.3981 60.1236 41.3981 59.086C41.3981 58.0484 40.5541 57.2043 39.5164 57.2043Z" fill="#E0A753"/>
<path d="M54.5692 57.2043C53.5315 57.2043 52.6875 58.0484 52.6875 59.086C52.6875 60.1236 53.5316 60.9677 54.5692 60.9677C55.6067 60.9677 56.4508 60.1236 56.4508 59.086C56.4508 58.0484 55.6067 57.2043 54.5692 57.2043Z" fill="#E0A753"/>
<path d="M68.871 64.7312H67.6203C69.0873 63.2955 70 61.2957 70 59.0861C70 54.8545 66.6568 51.3895 62.4731 51.1925V47.4195H65.8602C66.4837 47.4195 66.9892 46.914 66.9892 46.2904V34.2474C66.9892 33.6238 66.4837 33.1184 65.8602 33.1184H62.4731V31.2367C62.4731 30.6132 61.9676 30.1077 61.3441 30.1077H59.4624V23.7098C59.4624 23.2239 59.1514 22.7924 58.6905 22.6388L54.1744 21.1334C53.8303 21.0187 53.4517 21.0765 53.1572 21.2885C52.8627 21.5009 52.6883 21.8416 52.6883 22.2046V30.1076H50.8066C50.183 30.1076 49.6776 30.613 49.6776 31.2366V33.1183H47.4195V22.2043C47.4195 21.5807 46.9141 21.0753 46.2905 21.0753H45.3139L38.3692 12.7417C38.1497 9.84873 35.7416 7.55842 32.8003 7.52848C32.7923 7.5282 32.7841 7.52807 32.7759 7.52793C32.7645 7.52793 32.7534 7.52697 32.7421 7.52697C32.5336 7.52697 32.3278 7.53914 32.1251 7.56143L12.4718 8.71752L12.793 4.22043C12.8153 3.90775 12.7068 3.59986 12.4932 3.37059C12.2797 3.14104 11.9804 3.01074 11.6669 3.01074H2.63443C2.01086 3.01074 1.50541 3.51619 1.50541 4.13977V45.1613H1.12902C0.505449 45.1613 0 45.6667 0 46.2903V53.0644C0 57.4223 3.54525 60.9676 7.90316 60.9676H14.6773C14.6852 60.9676 14.693 60.9665 14.7008 60.9664C14.7087 60.9665 14.7165 60.9676 14.7243 60.9676H17.641C18.2645 60.9676 18.77 60.4621 18.77 59.8386C18.77 59.215 18.2645 58.7096 17.641 58.7096H15.8063V53.0644C15.8063 49.3786 13.2699 46.2746 9.85086 45.4046L11.8377 17.5893L29.1238 18.6063L31.413 24.5043C28.7629 26.9155 27.0966 30.3903 27.0966 34.2473V46.2903C27.0966 46.9139 27.602 47.4193 28.2256 47.4193H31.6127V51.1923C27.4289 51.3894 24.0857 54.8544 24.0857 59.0859C24.0857 61.2957 24.9985 63.2954 26.4655 64.7311H25.2148C24.5912 64.7311 24.0857 65.2365 24.0857 65.8601C24.0857 66.4837 24.5912 66.9891 25.2148 66.9891H68.8707C69.4943 66.9891 69.9997 66.4837 69.9997 65.8601C70 65.2368 69.4946 64.7312 68.871 64.7312ZM3.76346 15.5479C4.50297 16.5989 5.71771 17.2916 7.09338 17.3103L9.58371 17.4567L7.60471 45.1614H3.76346V15.5479ZM5.26887 13.1721C5.26887 12.1344 6.11297 11.2904 7.15053 11.2904C8.18809 11.2904 9.03219 12.1345 9.03219 13.1721C9.03219 14.2098 8.18809 15.0538 7.15053 15.0538C6.11297 15.0538 5.26887 14.2098 5.26887 13.1721ZM13.5484 53.0646V58.7097H7.9033C4.79049 58.7097 2.25818 56.1774 2.25818 53.0646V47.4195H7.9033C11.016 47.4195 13.5484 49.9518 13.5484 53.0646ZM10.1981 8.85109L7.09324 9.03389C5.71758 9.05275 4.50283 9.74537 3.76332 10.7963V5.26893H10.4539L10.1981 8.85109ZM28.0327 16.2803L11.9987 15.3372L12.3095 10.9888L28.0328 10.0639C27.4419 10.956 27.0968 12.0243 27.0968 13.1721C27.0968 14.3198 27.4419 15.3882 28.0327 16.2803ZM54.9462 23.7708L57.2042 24.5234V30.1074H54.9462V23.7708ZM51.9355 32.3656H60.215V36.1291H51.9355V32.3656ZM37.8282 15.6199L42.3743 21.0753H40.2687C37.705 21.0753 35.3104 21.8123 33.2843 23.0845L31.6028 18.7521C31.6028 18.7521 32.5333 18.8173 32.7418 18.8173C32.7418 18.8173 32.7421 18.8173 32.7424 18.8173H32.7428C32.7432 18.8173 32.7435 18.8172 32.7439 18.8172C34.9794 18.8164 36.9152 17.5095 37.8282 15.6199ZM29.3549 13.1721C29.3549 11.4449 30.6547 10.0166 32.3271 9.81127L32.7648 9.78557C34.622 9.79787 36.1292 11.312 36.1292 13.1721C36.1292 15.0321 34.622 16.5463 32.7648 16.5586L32.3271 16.5329C30.6545 16.3276 29.3549 14.8993 29.3549 13.1721ZM29.3549 45.1614V34.2474C29.3549 28.2293 34.2508 23.3334 40.2689 23.3334H45.1613V34.2474C45.1613 34.871 45.6668 35.3764 46.2904 35.3764H49.6774V37.2581C49.6774 37.8817 50.1829 38.3871 50.8065 38.3871H61.3441C61.9676 38.3871 62.4731 37.8817 62.4731 37.2581V35.3764H64.7311V45.1614H29.3549ZM60.215 47.4195V51.1829H33.871V47.4195H60.215ZM62.0968 64.7312H31.9893C28.8765 64.7312 26.3442 62.1989 26.3442 59.0861C26.3442 55.9733 28.8765 53.441 31.9893 53.441H62.0968C65.2096 53.441 67.742 55.9733 67.742 59.0861C67.742 62.1989 65.2096 64.7312 62.0968 64.7312Z" fill="#E0A753"/>
<path d="M41.3987 34.2475V28.2259C41.3987 27.6024 40.8932 27.0969 40.2697 27.0969C36.327 27.0969 33.1191 30.3048 33.1191 34.2475C33.1191 34.871 33.6246 35.3765 34.2482 35.3765H40.2697C40.8931 35.3765 41.3987 34.8709 41.3987 34.2475ZM39.1406 33.1184H35.5086C35.9336 31.3256 37.3479 29.9116 39.1406 29.4865V33.1184Z" fill="#E0A753"/>
<path d="M58.3328 40.6453H35.7521C35.1285 40.6453 34.623 41.1507 34.623 41.7743C34.623 42.3979 35.1285 42.9033 35.7521 42.9033H58.3327C58.9562 42.9033 59.4617 42.3979 59.4617 41.7743C59.4617 41.1507 58.9562 40.6453 58.3328 40.6453Z" fill="#E0A753"/>
</svg>
