<svg width="66" height="70" viewBox="0 0 66 70" fill="none" xmlns="http://www.w3.org/2000/svg">
<path fill-rule="evenodd" clip-rule="evenodd" d="M20.2852 58.7891C15.7734 58.7891 12.082 54.9609 12.082 50.5859C12.082 46.0742 15.7734 42.3828 20.2852 42.3828C24.7969 42.3828 28.4883 46.0742 28.4883 50.5859C28.4883 55.0977 24.7969 58.7891 20.2852 58.7891ZM20.2852 44.2969C16.8672 44.2969 14.1328 47.168 14.1328 50.4492C13.9961 54.0039 16.7305 56.7383 20.2852 56.7383C23.7031 56.7383 26.4375 54.0039 26.4375 50.5859C26.4375 47.168 23.7031 44.2969 20.2852 44.2969Z" fill="#E0A753"/>
<path fill-rule="evenodd" clip-rule="evenodd" d="M23.5664 70H16.8672C16.3203 70 15.9102 69.5898 15.9102 68.9062V65.4883C14.8164 65.2148 13.7227 64.668 12.7656 64.1211L10.168 66.582C9.75781 66.9922 9.21094 66.9922 8.80078 66.582L4.01562 61.7969C3.60547 61.5234 3.60547 60.8398 4.01562 60.4297L6.47656 57.9688C5.92969 56.875 5.51953 55.918 5.24609 54.8242H1.82812C1.28125 54.8242 0.734375 54.2773 0.734375 53.7305V47.168C0.734375 46.6211 1.28125 46.0742 1.82812 46.0742H5.24609C5.65625 45.1172 6.06641 44.0234 6.61328 43.0664L4.01562 40.4688C3.60547 40.0586 3.60547 39.5117 4.01562 39.1016L8.80078 34.3164C9.21094 33.9062 9.89453 33.9062 10.3047 34.3164L12.7656 36.7773C13.7227 36.2305 14.8164 35.8203 15.9102 35.5469V31.9922C15.9102 31.4453 16.3203 31.0352 17.0039 31.0352H23.7031C24.25 31.0352 24.6602 31.4453 24.6602 31.9922V35.5469C25.7539 35.8203 26.8477 36.2305 27.8047 36.7773L30.2656 34.3164C30.6758 33.9062 31.3594 33.9062 31.7695 34.3164L36.5547 39.1016C36.9648 39.5117 36.9648 40.0586 36.5547 40.4688L33.957 43.0664C34.5039 44.0234 34.9141 45.1172 35.1875 46.2109H38.7422C39.2891 46.2109 39.8359 46.6211 39.8359 47.168V53.8672C39.8359 54.4141 39.2891 54.9609 38.7422 54.9609H35.1875C34.9141 56.0547 34.5039 57.0117 33.957 58.1055L36.418 60.5664C36.8281 60.9766 36.8281 61.5234 36.418 61.9336L31.6328 66.7188C31.2227 67.1289 30.6758 67.1289 30.2656 66.7188L27.668 64.2578C26.7109 64.8047 25.6172 65.2148 24.5234 65.625V69.043C24.5234 69.5898 24.1133 70 23.5664 70ZM17.8242 67.9492H22.6094V64.668C22.6094 64.2578 22.8828 63.8477 23.4297 63.7109C24.7969 63.4375 26.1641 62.8906 27.3945 62.0703C27.8047 61.7969 28.2148 61.9336 28.625 62.207L30.9492 64.5312L34.3672 61.1133L32.043 58.7891C31.6328 58.5156 31.6328 57.9688 31.9062 57.5586C32.5898 56.3281 33.2734 54.9609 33.5469 53.5938C33.6836 53.1836 33.957 52.7734 34.5039 52.7734H37.7852V48.125H34.5039C33.957 48.125 33.6836 47.7148 33.5469 47.3047C33.2734 45.9375 32.5898 44.5703 31.9062 43.3398C31.6328 42.9297 31.6328 42.3828 32.043 42.1094L34.3672 39.7852L30.9492 36.3672L28.625 38.6914C28.2148 39.1016 27.8047 39.1016 27.3945 38.8281C26.1641 38.0078 24.7969 37.4609 23.4297 37.1875C22.8828 37.1875 22.6094 36.7773 22.6094 36.3672V33.0859H17.8242V36.3672C17.8242 36.7773 17.5508 37.1875 17.1406 37.3242C15.7734 37.5977 14.4062 38.2812 13.1758 38.9648C12.7656 39.2383 12.2188 39.2383 11.8086 38.9648L9.48438 36.5039L6.20312 39.9219L8.52734 42.2461C8.80078 42.6562 8.9375 43.0664 8.66406 43.4766C7.84375 44.707 7.29688 46.0742 6.88672 47.4414C6.75 47.9883 6.33984 48.2617 5.92969 48.2617H2.64844V52.9102H6.06641C6.47656 52.9102 6.88672 53.3203 7.02344 53.7305C7.43359 55.0977 7.98047 56.4648 8.66406 57.6953C8.9375 58.1055 8.80078 58.6523 8.52734 58.9258L6.20312 61.25L9.62109 64.668L11.9453 62.3438C12.2188 61.9336 12.7656 61.9336 13.1758 62.207C14.4062 63.0273 15.7734 63.5742 17.1406 63.8477C17.5508 63.9844 17.9609 64.3945 17.9609 64.8047V67.9492H17.8242Z" fill="#E0A753"/>
<path fill-rule="evenodd" clip-rule="evenodd" d="M52.4141 47.8516C49.2695 47.8516 46.6719 45.3906 46.6719 42.2461C46.6719 39.1016 49.2695 36.6406 52.4141 36.6406C55.5586 36.6406 58.0195 39.1016 58.0195 42.2461C57.8828 45.3906 55.4219 47.8516 52.4141 47.8516ZM52.4141 38.5547C50.3633 38.5547 48.7227 40.332 48.7227 42.2461C48.7227 44.2969 50.3633 45.9375 52.4141 45.9375C54.3281 45.9375 55.9688 44.2969 55.9688 42.2461C55.9688 40.1953 54.3281 38.5547 52.4141 38.5547Z" fill="#E0A753"/>
<path fill-rule="evenodd" clip-rule="evenodd" d="M54.4648 55.0977H50.2266C49.6797 55.0977 49.1328 54.6875 49.1328 54.1406V52.0898C48.5859 51.9531 48.0391 51.6797 47.6289 51.4062L46.125 52.7734C45.9883 52.9102 45.7148 53.0469 45.4414 53.0469C45.168 53.0469 44.8945 52.9102 44.7578 52.7734L41.75 49.7656C41.3398 49.3555 41.3398 48.6719 41.75 48.2617L43.2539 46.8945C42.8438 46.3477 42.707 45.8008 42.5703 45.2539H40.5195C39.9727 45.2539 39.5625 44.8438 39.5625 44.2969V39.9219C39.5625 39.375 39.9727 38.9648 40.5195 38.9648H42.5703C42.707 38.418 42.9805 37.8711 43.2539 37.3242L41.75 35.8203C41.3398 35.5469 41.3398 34.8633 41.75 34.4531L44.7578 31.4453C44.8945 31.1719 45.3047 31.0352 45.4414 31.0352C45.7148 31.0352 45.9883 31.1719 46.125 31.4453L47.6289 32.8125C48.0391 32.5391 48.5859 32.4023 49.1328 32.1289V30.0781C49.1328 29.5312 49.6797 29.1211 50.2266 29.1211H54.4648C55.1484 29.1211 55.5586 29.5312 55.5586 30.0781V32.1289C56.1055 32.2656 56.6523 32.5391 57.1992 32.8125L58.5664 31.3086C58.7031 31.1719 58.9766 31.0352 59.25 31.0352C59.5234 31.0352 59.7969 31.1719 59.9336 31.3086L62.9414 34.4531C63.3516 34.8633 63.3516 35.4102 62.9414 35.8203L61.5742 37.1875C61.8477 37.7344 61.9844 38.2812 62.2578 38.8281H64.1719C64.7188 38.8281 65.2656 39.2383 65.2656 39.9219V44.1602C65.2656 44.707 64.7188 45.2539 64.1719 45.2539H62.2578C61.9844 45.8008 61.8477 46.3477 61.5742 46.7578L62.9414 48.2617C63.3516 48.6719 63.3516 49.2188 62.9414 49.6289L59.9336 52.7734C59.7969 52.9102 59.5234 53.0469 59.25 53.0469C58.9766 53.0469 58.7031 52.9102 58.5664 52.7734L57.1992 51.2695C56.6523 51.543 56.1055 51.8164 55.5586 51.9531V54.0039C55.5586 54.6875 55.0117 55.0977 54.4648 55.0977ZM51.1836 53.1836H53.5078V51.4062C53.5078 50.8594 53.7812 50.5859 54.1914 50.4492C55.1484 50.1758 55.9688 49.9023 56.6523 49.3555C57.0625 49.082 57.6094 49.2188 57.8828 49.4922L59.25 50.7227L60.8906 49.082L59.6602 47.8516C59.25 47.4414 59.25 47.0312 59.3867 46.6211C59.9336 45.8008 60.3438 44.9805 60.4805 44.1602C60.6172 43.75 61.0273 43.3398 61.4375 43.3398H63.2148V41.0156H61.4375C61.0273 41.0156 60.6172 40.7422 60.4805 40.332C60.207 39.5117 59.9336 38.5547 59.3867 37.8711C59.25 37.4609 59.25 36.9141 59.6602 36.6406L60.8906 35.4102L59.25 33.7695L57.8828 35C57.6094 35.4102 57.0625 35.4102 56.6523 35.1367C55.9688 34.7266 55.1484 34.3164 54.1914 34.1797C53.7812 34.043 53.5078 33.6328 53.5078 33.0859V31.4453H51.1836V33.0859C51.1836 33.6328 50.9102 34.043 50.3633 34.1797C49.543 34.3164 48.7227 34.7266 48.0391 35.1367C47.6289 35.4102 47.082 35.2734 46.6719 35L45.4414 33.7695L43.8008 35.4102L45.0312 36.6406C45.4414 36.9141 45.4414 37.4609 45.3047 37.8711C44.7578 38.5547 44.4844 39.5117 44.2109 40.332C44.2109 40.7422 43.8008 41.0156 43.2539 41.0156H41.4766V43.3398H43.2539C43.8008 43.3398 44.2109 43.75 44.2109 44.1602C44.4844 44.9805 44.7578 45.8008 45.3047 46.7578C45.4414 47.168 45.4414 47.5781 45.0312 47.8516L43.8008 49.2188L45.4414 50.8594L46.6719 49.4922C47.082 49.2188 47.6289 49.2188 48.0391 49.3555C48.7227 49.9023 49.543 50.1758 50.3633 50.4492C50.9102 50.5859 51.1836 50.8594 51.1836 51.4062V53.1836Z" fill="#E0A753"/>
<path fill-rule="evenodd" clip-rule="evenodd" d="M35.8711 23.2422C32.043 23.2422 28.8984 20.0977 28.8984 16.1328C28.8984 12.3047 32.043 9.16016 35.8711 9.16016C39.6992 9.16016 42.8438 12.3047 42.8438 16.1328C42.8438 20.0977 39.6992 23.2422 35.8711 23.2422ZM35.8711 11.2109C33.1367 11.2109 30.8125 13.3984 30.8125 16.1328C30.8125 18.8672 33 21.1914 35.8711 21.1914C38.6055 21.1914 40.793 19.0039 40.793 16.1328C40.793 13.3984 38.6055 11.2109 35.8711 11.2109Z" fill="#E0A753"/>
<path fill-rule="evenodd" clip-rule="evenodd" d="M38.6055 32.4023H33C32.4531 32.4023 32.043 31.9922 32.043 31.4453V28.7109C31.2227 28.4375 30.4023 28.0273 29.582 27.6172L27.668 29.668C27.2578 30.0781 26.7109 30.0781 26.3008 29.668L22.4727 25.8398C22.0625 25.4297 22.0625 24.7461 22.4727 24.3359L24.3867 22.4219C23.9766 21.6016 23.7031 20.7812 23.4297 19.9609H20.5586C20.0117 19.9609 19.6016 19.5508 19.6016 19.0039V13.3984C19.6016 12.8516 20.0117 12.4414 20.5586 12.4414H23.4297C23.5664 11.6211 23.9766 10.8008 24.3867 9.98047L22.4727 8.06641C22.0625 7.65625 22.0625 6.97266 22.4727 6.5625L26.3008 2.73438C26.4375 2.46094 26.7109 2.32422 26.9844 2.32422C27.2578 2.32422 27.5312 2.46094 27.668 2.73438L29.582 4.64844C30.4023 4.375 31.2227 3.96484 32.043 3.69141V0.957031C32.043 0.410156 32.5898 0 33.1367 0H38.6055C39.1523 0 39.6992 0.410156 39.6992 0.957031V3.69141C40.5195 3.96484 41.3398 4.375 42.0234 4.78516L43.9375 2.73438C44.2109 2.59766 44.4844 2.46094 44.6211 2.46094C44.8945 2.46094 45.168 2.59766 45.3047 2.73438L49.2695 6.69922C49.6797 7.10938 49.6797 7.65625 49.2695 8.06641L47.3555 9.98047C47.6289 10.8008 48.0391 11.6211 48.3125 12.4414H51.0469C51.7305 12.4414 52.1406 12.8516 52.1406 13.3984V19.0039C52.1406 19.5508 51.7305 19.9609 51.0469 19.9609H48.3125C48.0391 20.7812 47.7656 21.6016 47.3555 22.4219L49.2695 24.3359C49.6797 24.7461 49.6797 25.4297 49.2695 25.8398L45.3047 29.668C45.168 29.8047 44.8945 29.9414 44.6211 29.9414C44.3477 29.9414 44.2109 29.8047 43.9375 29.668L42.0234 27.6172C41.2031 28.1641 40.3828 28.4375 39.5625 28.7109V31.4453C39.5625 32.1289 39.1523 32.4023 38.6055 32.4023ZM34.0938 30.4883H37.6484V27.8906C37.6484 27.4805 37.9219 27.0703 38.4688 26.9336C39.4258 26.6602 40.5195 26.25 41.75 25.5664C42.1602 25.293 42.5703 25.4297 42.8438 25.7031L44.7578 27.6172L47.2188 25.0195L45.3047 23.2422C45.0312 22.832 44.8945 22.2852 45.3047 22.0117C45.8516 20.918 46.2617 19.8242 46.6719 18.7305C46.6719 18.3203 47.082 17.9102 47.6289 17.9102H50.0898V14.3555H47.6289C47.082 14.3555 46.6719 14.082 46.6719 13.6719C46.2617 12.4414 45.8516 11.3477 45.3047 10.3906C45.0312 9.98047 45.0312 9.43359 45.3047 9.16016L47.2188 7.24609L44.6211 4.78516L42.8438 6.5625C42.5703 6.97266 42.0234 6.97266 41.6133 6.83594C40.6562 6.15234 39.5625 5.74219 38.4688 5.46875C37.9219 5.33203 37.6484 4.92188 37.6484 4.375V1.91406H34.0938V4.375C34.0938 4.92188 33.6836 5.33203 33.2734 5.46875C32.1797 5.74219 31.0859 6.15234 29.9922 6.83594C29.582 6.97266 29.1719 6.97266 28.7617 6.5625L26.9844 4.78516L24.5234 7.24609L26.3008 9.16016C26.7109 9.43359 26.7109 9.84375 26.5742 10.2539C25.8906 11.4844 25.3438 12.5781 25.207 13.6719C25.0703 14.082 24.6602 14.3555 24.1133 14.3555H21.6523V18.0469H24.1133C24.6602 18.0469 25.0703 18.3203 25.207 18.7305C25.3438 19.8242 25.8906 20.918 26.5742 22.0117C26.7109 22.4219 26.7109 22.9688 26.4375 23.2422L24.5234 25.0195L27.1211 27.6172L28.8984 25.7031C29.3086 25.4297 29.7188 25.293 30.1289 25.5664C31.2227 26.25 32.3164 26.6602 33.4102 26.9336C33.8203 27.0703 34.2305 27.4805 34.2305 27.8906V30.4883H34.0938Z" fill="#E0A753"/>
</svg>
