<svg width="70" height="70" viewBox="0 0 70 70" fill="none" xmlns="http://www.w3.org/2000/svg">
<g clip-path="url(#clip0_6004_14304)">
<path d="M69.4856 15.4957L35.3606 0.0781855C35.1316 -0.0260618 34.8684 -0.0260618 34.6394 0.0781855L0.514404 15.4957C0.20166 15.6367 0 15.9494 0 16.2929V25.0873C0 25.383 0.149536 25.659 0.398193 25.8205C0.645996 25.9828 0.95874 26.0076 1.22961 25.8871L6.01904 23.7635V69.125C6.01904 69.6086 6.4104 70 6.89404 70H63.106C63.5896 70 63.981 69.6086 63.981 69.125V23.7635L68.7704 25.8871C68.884 25.9375 69.0045 25.9623 69.125 25.9623C69.2916 25.9623 69.4583 25.9145 69.6018 25.8205C69.8505 25.659 70 25.383 70 25.0873V16.2929C70 15.9494 69.7983 15.6367 69.4856 15.4957ZM44.9634 68.25H25.0366V29.7716H44.9634V68.25ZM62.231 68.25H46.7134V28.8966C46.7134 28.413 46.322 28.0216 45.8384 28.0216H24.1616C23.678 28.0216 23.2866 28.413 23.2866 28.8966V68.25H7.76904V22.9876L35 10.9139L62.231 22.9876V68.25ZM68.25 23.7423L35.3546 9.15711C35.2418 9.10669 35.1205 9.08191 35 9.08191C34.8795 9.08191 34.7582 9.10669 34.6454 9.15711L1.75 23.7423V16.8577L35 1.83587L68.25 16.8577V23.7423Z" fill="#E0A753"/>
<path d="M29.8524 47H40.1476C40.6188 47 41 46.5921 41 46.088V34.912C41 34.4079 40.6188 34 40.1476 34H29.8524C29.3812 34 29 34.4079 29 34.912V46.088C29 46.5921 29.3812 47 29.8524 47ZM30.7048 35.8241H39.2952V45.1759H30.7048V35.8241Z" fill="#E0A753"/>
<path d="M13.0363 58.2096C12.5704 57.9301 11.8155 57.9301 11.3495 58.2096C10.8835 58.4892 10.8835 58.942 11.3495 59.2215L13.9637 60.7904C14.1966 60.9301 14.5019 61 14.8071 61C15.1123 61 15.4175 60.9301 15.6505 60.7904C16.1165 60.5108 16.1165 60.058 15.6505 59.7785L13.0363 58.2096Z" fill="#E0A753"/>
<path d="M13.6638 52.2855C13.283 51.9048 12.6663 51.9048 12.2855 52.2855C11.9048 52.6663 11.9048 53.283 12.2855 53.6638L18.3362 59.7145C18.5266 59.9048 18.776 60 19.0253 60C19.2747 60 19.5241 59.9048 19.7145 59.7145C20.0952 59.3337 20.0952 58.717 19.7145 58.3362L13.6638 52.2855Z" fill="#E0A753"/>
<path d="M52.7782 35.7204C52.918 35.9068 53.1011 36 53.2842 36C53.4674 36 53.6505 35.9068 53.7903 35.7204C54.0699 35.3476 54.0699 34.7437 53.7903 34.3709L52.2218 32.2796C51.9422 31.9068 51.4893 31.9068 51.2097 32.2796C50.9301 32.6524 50.9301 33.2563 51.2097 33.6291L52.7782 35.7204Z" fill="#E0A753"/>
<path d="M57.3362 33.7858C57.5266 33.9286 57.776 34 58.0253 34C58.2747 34 58.5241 33.9286 58.7145 33.7858C59.0952 33.5003 59.0952 33.0377 58.7145 32.7522L52.6638 28.2142C52.283 27.9286 51.6663 27.9286 51.2855 28.2142C50.9048 28.4997 50.9048 28.9623 51.2855 29.2478L57.3362 33.7858Z" fill="#E0A753"/>
</g>
<defs>
<clipPath id="clip0_6004_14304">
<rect width="70" height="70" fill="white"/>
</clipPath>
</defs>
</svg>
