<svg width="70" height="70" viewBox="0 0 70 70" fill="none" xmlns="http://www.w3.org/2000/svg">
<g clip-path="url(#clip0_6004_14351)">
<path d="M36.1292 4.51611H33.8711V6.77418H36.1292V4.51611Z" fill="#E0A753"/>
<path d="M15.8389 14.2427L14.2422 12.646L12.6455 14.2427L14.2422 15.8394L15.8389 14.2427Z" fill="#E0A753"/>
<path d="M6.77369 33.8708H4.51562V36.1289H6.77369V33.8708Z" fill="#E0A753"/>
<path d="M12.6416 55.7539L14.2383 57.3506L15.835 55.7539L14.2383 54.1572L12.6416 55.7539Z" fill="#E0A753"/>
<path d="M57.3486 14.2461L55.752 12.6494L54.1553 14.2461L55.752 15.8428L57.3486 14.2461Z" fill="#E0A753"/>
<path d="M31.6137 58.7097C29.7462 58.7097 28.2266 60.2294 28.2266 62.0968C28.2266 63.9642 29.7462 65.4839 31.6137 65.4839C33.4811 65.4839 35.0008 63.9642 35.0008 62.0968C35.0008 60.2294 33.4811 58.7097 31.6137 58.7097ZM31.6137 63.2258C30.9904 63.2258 30.4846 62.72 30.4846 62.0968C30.4846 61.4736 30.9904 60.9678 31.6137 60.9678C32.2369 60.9678 32.7427 61.4736 32.7427 62.0968C32.7427 62.72 32.2369 63.2258 31.6137 63.2258Z" fill="#E0A753"/>
<path d="M58.7094 58.7097C56.8419 58.7097 55.3223 60.2294 55.3223 62.0968C55.3223 63.9642 56.8419 65.4839 58.7094 65.4839C60.5768 65.4839 62.0965 63.9642 62.0965 62.0968C62.0965 60.2294 60.5768 58.7097 58.7094 58.7097ZM58.7094 63.2258C58.0861 63.2258 57.5803 62.72 57.5803 62.0968C57.5803 61.4736 58.0861 60.9678 58.7094 60.9678C59.3326 60.9678 59.8384 61.4736 59.8384 62.0968C59.8384 62.72 59.3326 63.2258 58.7094 63.2258Z" fill="#E0A753"/>
<path d="M64.3165 26.6994C63.42 23.529 62.0426 20.5405 60.1729 17.8116L63.7406 14.2439L55.7573 6.26048L52.1884 9.82823C48.7144 7.45387 44.7605 5.81226 40.6452 5.04V0H29.3548V5.04C25.2395 5.81339 21.2856 7.45387 17.8116 9.8271L14.2427 6.25936L6.25936 14.2427L9.8271 17.8116C7.45387 21.2856 5.81226 25.2395 5.04 29.3548H0V40.6452H5.04C5.81339 44.7605 7.45387 48.7144 9.8271 52.1884L6.25936 55.7573L14.2427 63.7406L17.8105 60.1729C18.9305 60.9373 20.1069 61.6237 21.3161 62.2334C21.9292 62.8465 22.776 63.2258 23.7097 63.2258H23.8C24.351 67.0487 27.6398 70 31.6129 70C35.586 70 38.8748 67.0487 39.4258 63.2258H50.8968C51.4477 67.0487 54.7366 70 58.7097 70C62.6827 70 65.9716 67.0487 66.5226 63.2258H66.6129C68.4803 63.2258 70 61.7061 70 59.8387V50.8064V49.6774V39.5161V38.3871V28.5318L64.3165 26.6994ZM64.4858 29.1268L57.5806 33.9602V26.8992L64.4858 29.1268ZM20.3226 52.4684V59.1048C19.6485 58.6927 18.9892 58.2558 18.3535 57.7906L17.5723 57.2182L14.2427 60.5477L9.45226 55.7573L12.7818 52.4289L12.2094 51.6476C9.55274 48.0177 7.78919 43.7635 7.10613 39.3456L6.95935 38.3871H2.25806V31.6129H6.95935L7.10726 30.6555C7.78919 26.2376 9.55387 21.9823 12.2105 18.3535L12.7829 17.5723L9.45339 14.2439L14.2439 9.45339L17.5723 12.7829L18.3535 12.2105C21.9834 9.55387 26.2376 7.79032 30.6555 7.10726L31.6129 6.95935V2.25806H38.3871V6.95935L39.3445 7.10726C43.7624 7.78919 48.0177 9.55387 51.6465 12.2105L52.4277 12.7829L55.7561 9.45339L60.5466 14.2439L57.2171 17.5734L57.7895 18.3535C59.4774 20.6602 60.7713 23.179 61.6869 25.8514L55.8397 23.9648L55.8035 23.914L55.7652 23.9411L52.7518 22.969C48.746 17.0665 42.1445 13.5484 35 13.5484C23.1711 13.5484 13.5484 23.1711 13.5484 35C13.5484 41.0595 16.0966 46.7882 20.5585 50.8539C20.4061 51.3687 20.3226 51.9106 20.3226 52.4684ZM55.3226 27.0076V34.7674L47.6835 32.3547L55.3226 27.0076ZM46.2903 30.5731V23.2569L53.445 25.5647L46.2903 30.5731ZM21.6887 48.79C17.9482 45.1794 15.8065 40.2331 15.8065 35C15.8065 24.4165 24.4165 15.8065 35 15.8065C40.2974 15.8065 45.2663 17.9652 48.8532 21.7113L33.6994 16.8226L22.5806 24.2347V26.7953L64.7026 40.0965L57.0376 49.6774H48.5484V39.5161C48.5484 37.6487 47.0287 36.129 45.1613 36.129H32.2474C30.6905 36.129 29.339 37.1847 28.9619 38.6942L27.2571 45.5124L23.4432 47.4194C22.7568 47.7626 22.1685 48.2334 21.6887 48.79ZM44.0323 23.6205V31.2019L36.5682 28.8445L44.0323 23.6205ZM35 27.186V19.6147L42.4042 22.0037L35 27.186ZM32.7419 20.1735V27.6365L25.1458 25.2373L32.7419 20.1735ZM23.8 60.9677H23.7097C23.0865 60.9677 22.5806 60.4619 22.5806 59.8387V58.7097H24.4831C24.1477 59.4119 23.9152 60.1706 23.8 60.9677ZM31.6129 67.7419C28.5002 67.7419 25.9677 65.2095 25.9677 62.0968C25.9677 58.984 28.5002 56.4516 31.6129 56.4516C34.7256 56.4516 37.2581 58.984 37.2581 62.0968C37.2581 65.2095 34.7256 67.7419 31.6129 67.7419ZM37.1327 56.4516C36.2284 55.5665 35.114 54.8981 33.871 54.5266V49.6774H40.6452V56.4516H37.1327ZM33.871 47.4194V46.4292L34.7527 42.9032H40.6452V47.4194H33.871ZM58.7097 67.7419C55.5969 67.7419 53.0645 65.2095 53.0645 62.0968C53.0645 58.984 55.5969 56.4516 58.7097 56.4516C61.8224 56.4516 64.3548 58.984 64.3548 62.0968C64.3548 65.2095 61.8224 67.7419 58.7097 67.7419ZM67.7419 59.8387C67.7419 60.4619 67.2361 60.9677 66.6129 60.9677H66.5226C66.4074 60.1706 66.1748 59.4119 65.8395 58.7097H67.7419V59.8387ZM67.7419 56.4516H64.3548V56.5769C62.9187 55.1081 60.9203 54.1936 58.7097 54.1936C56.5623 54.1936 54.6158 55.0573 53.1898 56.4516H47.4194V58.7097H51.5798C51.2445 59.4119 51.0119 60.1706 50.8968 60.9677H39.4258C39.3106 60.1706 39.0781 59.4119 38.7427 58.7097H45.1613V56.4516H42.9032V49.6774V48.5484V40.6452H32.9892L31.6479 46.0171L31.6231 48.5484H31.6129V54.1936C29.4655 54.1936 27.519 55.0573 26.0931 56.4516H22.5806V52.4684C22.5806 51.1779 23.2987 50.0173 24.4526 49.4392L29.1945 47.0671L31.15 39.2418C31.2776 38.7394 31.7281 38.3871 32.2474 38.3871H45.1613C45.7845 38.3871 46.2903 38.8929 46.2903 39.5161V51.9355H67.7419V56.4516ZM67.7419 49.6774H59.9302L67.1548 40.6452H67.7419V49.6774ZM67.7419 38.3871H66.7845L58.7977 35.8648L67.1808 29.9961L67.7419 30.1779V38.3871Z" fill="#E0A753"/>
</g>
<defs>
<clipPath id="clip0_6004_14351">
<rect width="70" height="70" fill="white"/>
</clipPath>
</defs>
</svg>
