<svg width="70" height="70" viewBox="0 0 70 70" fill="none" xmlns="http://www.w3.org/2000/svg">
<g clip-path="url(#clip0_6004_14327)">
<path d="M23.8898 39.342C17.9756 39.342 13.1042 34.7918 12.5909 29.0089C11.068 28.6747 9.74667 27.6488 9.06404 26.2099C8.79707 25.6462 9.03754 24.9727 9.60122 24.705C10.1643 24.4381 10.8385 24.6779 11.1061 25.2416C11.5735 26.2299 12.5825 26.8673 13.6763 26.8673C14.2994 26.8673 14.8056 27.3728 14.8056 27.9973C14.8056 33.0071 18.8813 37.0821 23.8898 37.0821C26.959 37.0821 29.7994 35.5488 31.4879 32.9793C31.8305 32.4576 32.5312 32.3128 33.0528 32.6554C33.5739 32.998 33.7193 33.6987 33.3761 34.2198C31.2681 37.4267 27.7218 39.342 23.8898 39.342Z" fill="#E0A753"/>
<path d="M34.7871 21.7431H10.3871C9.76396 21.7431 9.25781 21.2376 9.25781 20.6138C9.25781 13.4488 13.8946 7.63811 20.7958 6.15456C21.4074 6.02204 22.0079 6.41119 22.1378 7.02142C22.269 7.63164 21.8812 8.23217 21.2716 8.36275C15.8029 9.53924 12.0168 13.9362 11.563 19.4838H34.7871C35.4102 19.4838 35.9164 19.9893 35.9164 20.6138C35.9164 21.2376 35.4102 21.7431 34.7871 21.7431Z" fill="#E0A753"/>
<path d="M37.3524 18.4147C36.8398 18.4147 36.3757 18.0637 36.2535 17.544C35.1856 13.0054 31.6878 9.5115 27.1241 8.42551C26.5171 8.28136 26.1421 7.67243 26.2869 7.06543C26.4304 6.45909 27.0387 6.08351 27.647 6.22831C33.0479 7.51211 37.1889 11.6512 38.4533 17.0255C38.5968 17.6332 38.2199 18.2415 37.6123 18.3843C37.525 18.405 37.4371 18.4147 37.3524 18.4147Z" fill="#E0A753"/>
<path d="M27.1124 21.7432H21.4639C20.8401 21.7432 20.334 21.2377 20.334 20.6139V18.9364C20.334 18.3126 20.8401 17.8071 21.4639 17.8071C22.0877 17.8071 22.5939 18.3126 22.5939 18.9364V19.484H25.9824V19.0948C25.9824 18.4704 26.4886 17.9649 27.1124 17.9649C27.7362 17.9649 28.2423 18.4704 28.2423 19.0948V20.6139C28.2423 21.2377 27.7362 21.7432 27.1124 21.7432Z" fill="#E0A753"/>
<path d="M27.1124 16.29C26.4886 16.29 25.9824 15.7845 25.9824 15.1607V5.39516C25.4091 5.30143 24.9598 5.25876 24.2882 5.25876C23.6831 5.25876 23.0535 5.29109 22.5939 5.33246V14.9642C22.5939 15.588 22.0877 16.0935 21.4639 16.0935C20.8401 16.0935 20.334 15.588 20.334 14.9642V4.44944C20.334 3.21671 21.6087 2.99951 24.2882 2.99951C25.4821 2.99951 26.1667 3.12686 27.3018 3.33501C27.837 3.43391 28.2423 3.90386 28.2423 4.44944V15.1607C28.2423 15.7845 27.7362 16.29 27.1124 16.29Z" fill="#E0A753"/>
<path d="M33.1137 26.2623H6.77839C6.15459 26.2623 5.64844 25.7568 5.64844 25.1323V20.6138C5.64844 19.9894 6.15459 19.4839 6.77839 19.4839H34.7873C35.4105 19.4839 35.9166 19.9894 35.9166 20.6138C35.9166 21.2376 35.4105 21.7431 34.7873 21.7431H7.90769V24.0024H33.1137C33.7375 24.0024 34.2437 24.5079 34.2437 25.1323C34.2437 25.7568 33.7382 26.2623 33.1137 26.2623Z" fill="#E0A753"/>
<path d="M24.2887 59.0236H1.12995C0.50615 59.0236 0 58.5181 0 57.8937V56.1386C0 47.2322 6.80943 39.4952 15.8387 38.1428C16.2569 38.0814 16.679 38.2592 16.926 38.605C18.4936 40.8042 21.3721 42.225 24.2597 42.225C26.9882 42.225 29.4944 40.9076 31.135 38.6096C31.382 38.2637 31.806 38.0853 32.2236 38.15C34.5953 38.51 36.8268 39.3226 38.8566 40.5669C39.3879 40.8934 39.5547 41.5889 39.2283 42.1203C38.9018 42.6516 38.2076 42.8197 37.6749 42.4933C36.0912 41.5223 34.3665 40.8514 32.5365 40.4965C30.4711 43.0402 27.4911 44.4849 24.2597 44.4849C20.9183 44.4849 17.5711 42.9348 15.5271 40.4881C7.91934 41.9367 2.25925 48.5548 2.25925 56.138V56.7637H24.2887C24.9125 56.7637 25.4187 57.2692 25.4187 57.893C25.4187 58.5175 24.9125 59.0236 24.2887 59.0236Z" fill="#E0A753"/>
<path d="M37.7703 47.8476C37.7289 47.8476 37.6882 47.8457 37.6455 47.8411C37.0249 47.7726 36.5776 47.2161 36.6455 46.5942L37.1393 42.0873C37.2072 41.4674 37.767 41.0168 38.3857 41.088C39.0062 41.1558 39.4535 41.713 39.3857 42.3343L38.8918 46.8411C38.8285 47.4197 38.3385 47.8476 37.7703 47.8476Z" fill="#E0A753"/>
<path d="M24.2878 59.0238H10.7711C10.1951 59.0238 9.71096 58.59 9.64825 58.018L7.86218 41.7714C7.81499 41.3389 8.01926 40.9187 8.38966 40.688C9.65536 39.9013 10.9999 39.4656 12.3005 39.0454L12.6289 38.9387C13.2016 38.7558 13.8158 39.0467 14.0323 39.6052L17.1752 47.7269H30.1347L33.3468 39.3402C33.5582 38.7907 34.1568 38.494 34.7185 38.6595C35.7535 38.962 36.7632 39.2684 37.7425 39.7067C38.312 39.9614 38.5667 40.6304 38.312 41.1999C38.0573 41.7701 37.3883 42.0228 36.8194 41.7701C36.2687 41.5225 35.6849 41.3176 35.0818 41.1282L31.9667 49.2608C31.7993 49.6972 31.3797 49.9868 30.9117 49.9868H16.4014C15.9347 49.9868 15.5165 49.6998 15.3478 49.2654L12.3115 41.4191C11.5694 41.666 10.8577 41.9252 10.1893 42.2659L11.7834 56.7645H24.2878C24.9116 56.7645 25.4178 57.2707 25.4178 57.8945C25.4178 58.5189 24.9116 59.0238 24.2878 59.0238Z" fill="#E0A753"/>
<path d="M46.616 46.9167C40.7019 46.9167 35.8304 42.3665 35.3171 36.5849C33.8064 36.2514 32.4916 35.2378 31.8058 33.8169C31.5349 33.2552 31.7702 32.5803 32.3326 32.3088C32.893 32.0393 33.5692 32.2726 33.8407 32.835C34.3126 33.8124 35.3178 34.444 36.4025 34.444C37.0256 34.444 37.5318 34.9495 37.5318 35.5733C37.5318 40.5824 41.6075 44.6575 46.616 44.6575C51.6251 44.6575 55.7002 40.5824 55.7002 35.5733C55.7002 34.9495 56.2063 34.444 56.8301 34.444C57.9523 34.444 58.9724 33.782 59.4288 32.7574C59.6828 32.1853 60.3493 31.9274 60.9201 32.1847C61.4902 32.4381 61.7468 33.1059 61.4928 33.6754C60.8244 35.1776 59.4818 36.2455 57.9161 36.5862C57.4016 42.3678 52.5301 46.9167 46.616 46.9167Z" fill="#E0A753"/>
<path d="M60.4587 28.5216H33.1137C32.4905 28.5216 31.9844 28.0161 31.9844 27.3916C31.9844 21.005 36.9728 14.6978 43.3414 13.0333C43.9458 12.8801 44.5631 13.2369 44.7202 13.8413C44.8773 14.4444 44.5166 15.0624 43.9128 15.2201C38.8688 16.5382 34.8409 21.2571 34.3037 26.2623H59.2667C58.7315 21.3359 54.7805 16.6422 49.8334 15.2673C49.2323 15.0992 48.88 14.4774 49.0474 13.8762C49.2148 13.2763 49.8367 12.9272 50.4379 13.0889C56.7941 14.8555 61.5874 21.005 61.5874 27.391C61.5887 28.0161 61.0832 28.5216 60.4587 28.5216Z" fill="#E0A753"/>
<path d="M49.7081 28.5215H44.059C43.4358 28.5215 42.9297 28.016 42.9297 27.3916V24.7677C42.9297 24.1439 43.4358 23.6384 44.059 23.6384C44.6828 23.6384 45.1889 24.1439 45.1889 24.7677V26.2623H48.5781V24.9552C48.5781 24.3307 49.0843 23.8252 49.7081 23.8252C50.3312 23.8252 50.8374 24.3307 50.8374 24.9552V27.3916C50.8374 28.016 50.3312 28.5215 49.7081 28.5215Z" fill="#E0A753"/>
<path d="M44.059 22.0721C43.4358 22.0721 42.9297 21.5666 42.9297 20.9421V12.0247C42.9297 10.7926 44.2044 10.5754 46.8839 10.5754C48.0875 10.5754 48.7753 10.7034 49.9143 10.9142C50.4489 11.0137 50.8374 11.4817 50.8374 12.0254V20.9047C50.8374 21.5285 50.3312 22.034 49.7081 22.034C49.0843 22.034 48.5781 21.5285 48.5781 20.9047V12.9704C48.0106 12.878 47.5594 12.8347 46.8839 12.8347C46.2782 12.8347 45.6479 12.867 45.1889 12.909V20.9428C45.1889 21.5666 44.6828 22.0721 44.059 22.0721Z" fill="#E0A753"/>
<path d="M64.3944 34.1699H30.503C29.8792 34.1699 29.373 33.6644 29.373 33.04V27.3915C29.373 26.7677 29.8792 26.2622 30.503 26.2622H64.3944C65.0175 26.2622 65.5237 26.7677 65.5237 27.3915V33.04C65.5237 33.6644 65.0175 34.1699 64.3944 34.1699ZM31.6329 31.9107H63.2644V28.5215H31.6329V31.9107Z" fill="#E0A753"/>
<path d="M68.9114 66.9313H23.7231C23.0993 66.9313 22.5938 66.4258 22.5938 65.802V63.7147C22.5938 54.8102 29.4245 47.0745 38.4816 45.7189C38.9011 45.6588 39.3219 45.8346 39.5689 46.1811C41.1358 48.3789 44.0344 49.7991 46.9523 49.7991C49.7003 49.7991 52.1302 48.5166 53.7941 46.1856C54.0416 45.8391 54.4644 45.6633 54.8833 45.726C63.6663 47.0564 70.0413 54.6228 70.0413 63.7141V65.8014C70.0413 66.4258 69.5351 66.9313 68.9114 66.9313ZM24.853 64.6721H67.782V63.7147C67.782 55.977 62.5279 49.5018 55.1968 48.0719C53.1328 50.6149 50.1657 52.0597 46.9523 52.0597C43.5819 52.0597 40.2166 50.5108 38.1706 48.0635C30.5338 49.5147 24.853 56.1334 24.853 63.7141V64.6721Z" fill="#E0A753"/>
<path d="M59.2699 66.9313H33.4996C32.923 66.9313 32.4395 66.4976 32.3768 65.9242L30.5907 49.5942C30.5435 49.163 30.7484 48.7416 31.1182 48.5121C32.5338 47.633 34.0491 47.1055 35.3587 46.6808C35.9321 46.4965 36.5494 46.7913 36.7627 47.3537L39.9095 55.6344H52.8613L56.074 47.1682C56.2841 46.6174 56.8853 46.3201 57.4464 46.4843L57.9467 46.6278C59.1846 46.982 60.4645 47.3479 61.6714 48.0719C62.0496 48.2981 62.261 48.7241 62.2138 49.1637L60.3934 65.9248C60.3307 66.4963 59.8472 66.9313 59.2699 66.9313ZM34.5125 64.6721H58.2564L59.8847 49.677C59.2447 49.3744 58.5628 49.1585 57.8181 48.942L54.6971 57.1645C54.5304 57.6034 54.1102 57.8937 53.6409 57.8937H39.1293C38.6606 57.8937 38.2398 57.6034 38.0737 57.1658L35.0368 49.174C34.3367 49.4236 33.6108 49.7157 32.9165 50.0829L34.5125 64.6721Z" fill="#E0A753"/>
<path d="M46.8841 27.5384C44.4664 27.5384 42.5 25.5732 42.5 23.1556C42.5 20.738 44.4664 18.7722 46.8841 18.7722C49.301 18.7722 51.2675 20.738 51.2675 23.1556C51.2675 25.5732 49.301 27.5384 46.8841 27.5384ZM46.8841 21.0315C45.7127 21.0315 44.7593 21.9849 44.7593 23.1556C44.7593 24.3256 45.7127 25.2791 46.8841 25.2791C48.0547 25.2791 49.0082 24.3256 49.0082 23.1556C49.0082 21.9849 48.0547 21.0315 46.8841 21.0315Z" fill="#E0A753"/>
<path d="M24.2883 21.3566C21.8714 21.3566 19.9043 19.3901 19.9043 16.9725C19.9043 14.5549 21.8707 12.5891 24.2883 12.5891C26.706 12.5891 28.6724 14.5549 28.6724 16.9725C28.6724 19.3901 26.7053 21.3566 24.2883 21.3566ZM24.2883 14.849C23.1177 14.849 22.1642 15.8025 22.1642 16.9732C22.1642 18.1445 23.1177 19.098 24.2883 19.098C25.459 19.098 26.4125 18.1445 26.4125 16.9732C26.4125 15.8018 25.459 14.849 24.2883 14.849Z" fill="#E0A753"/>
</g>
<defs>
<clipPath id="clip0_6004_14327">
<rect width="70.0419" height="70" fill="white"/>
</clipPath>
</defs>
</svg>
