<svg width="60" height="60" viewBox="0 0 60 60" fill="none" xmlns="http://www.w3.org/2000/svg">
<path d="M33.186 10.9158C27.0461 4.77606 17.0563 4.7762 10.9167 10.9158C7.94259 13.8899 6.30469 17.8442 6.30469 22.0504C6.30469 26.2564 7.94259 30.2107 10.9167 33.1848C13.9869 36.2551 18.0184 37.7895 22.0513 37.7895C26.0833 37.7895 30.1165 36.2543 33.186 33.1848C36.1601 30.2107 37.798 26.2564 37.798 22.0504C37.798 17.8442 36.1601 13.8898 33.186 10.9158ZM31.6989 31.6978C26.3794 37.0175 17.7234 37.0174 12.4038 31.6978C9.82679 29.1208 8.40759 25.6946 8.40759 22.0502C8.40759 18.4058 9.82679 14.9796 12.4038 12.4026C15.0637 9.74286 18.5575 8.4129 22.0513 8.4129C25.5452 8.4129 29.0392 9.74286 31.6989 12.4026C34.2759 14.9796 35.6951 18.4058 35.6951 22.0502C35.6951 25.6946 34.2759 29.1208 31.6989 31.6978Z" fill="#E0A753"/>
<path d="M22.0515 9.5979C21.4708 9.5979 21 10.0687 21 10.6494C21 11.23 21.4708 11.7008 22.0515 11.7008C27.7581 11.7008 32.4009 16.3435 32.4009 22.0502C32.4009 22.6309 32.8717 23.1017 33.4523 23.1017C34.033 23.1017 34.5038 22.6309 34.5038 22.0502C34.5038 15.1839 28.9177 9.5979 22.0515 9.5979Z" fill="#E0A753"/>
<path d="M57.919 47.8715L41.8414 31.794C43.3185 28.8008 44.1002 25.4857 44.1002 22.0502C44.1002 16.1604 41.8066 10.6232 37.6418 6.45841C33.4771 2.29361 27.9399 0 22.0501 0C16.1603 0 10.6231 2.29361 6.45841 6.45828C2.29361 10.6231 0 16.1603 0 22.0501C0 27.9399 2.29361 33.4771 6.45841 37.6418C10.6231 41.8066 16.1603 44.1002 22.0501 44.1002C25.4857 44.1002 28.8007 43.3185 31.7939 41.8416L47.8714 57.9191C49.2133 59.261 50.9975 60 52.8953 60C54.793 60 56.5773 59.261 57.9192 57.9191C60.6891 55.1489 60.6891 50.6417 57.919 47.8715ZM9.24646 34.8539C5.82648 31.4339 3.94294 26.8868 3.94294 22.0502C3.94294 17.2136 5.82648 12.6666 9.24646 9.24646C12.6664 5.82648 17.2134 3.94294 22.0501 3.94294C26.8867 3.94294 31.4338 5.82648 34.8538 9.24646C38.2737 12.6664 40.1573 17.2136 40.1573 22.0501C40.1573 26.8867 38.2739 31.4338 34.8538 34.8538C31.4338 38.2737 26.8867 40.1573 22.0501 40.1573C17.2134 40.1573 12.6664 38.2739 9.24646 34.8539ZM55.131 55.131C54.5338 55.7282 53.7398 56.0571 52.8952 56.0571C52.0506 56.0571 51.2567 55.7282 50.6594 55.131L35.2473 39.7188C36.0863 39.0894 36.8869 38.3969 37.6418 37.6419C38.3968 36.887 39.0893 36.0865 39.7187 35.2474L55.1309 50.6596C56.3637 51.8923 56.3637 53.8983 55.131 55.131Z" fill="#E0A753"/>
</svg>
